HIERARCHY
ROOT hip
{
  OFFSET 72.2049 98.7989 44.7352
  CHANNELS 6 Xposition Yposition Zposition Zrotation Xrotation Yrotation
  JOINT abdomen
  {
    OFFSET 0 20.6881 -0.73152
    CHANNELS 3 Zrotation Xrotation Yrotation
    JOINT chest
    {
      OFFSET 0 11.7043 -0.48768
      CHANNELS 3 Zrotation Xrotation Yrotation
      JOINT neck
      {
        OFFSET 0 22.1894 -2.19456
        CHANNELS 3 Zrotation Xrotation Yrotation
        JOINT head
        {
          OFFSET -0.24384 7.07133 1.2192
          CHANNELS 3 Zrotation Xrotation Yrotation
          JOINT leftEye
          {
            OFFSET 4.14528 8.04674 8.04672
            CHANNELS 3 Zrotation Xrotation Yrotation
            End Site
            {
              OFFSET 1 0 0
            }
          }
          JOINT rightEye
          {
            OFFSET -3.6576 8.04674 8.04672
            CHANNELS 3 Zrotation Xrotation Yrotation
            End Site
            {
              OFFSET 1 0 0
            }
          }
        }
      }
      JOINT rCollar
      {
        OFFSET -2.68224 19.2634 -4.8768
        CHANNELS 3 Zrotation Xrotation Yrotation
        JOINT rShldr
        {
          OFFSET -8.77824 -1.95073 1.46304
          CHANNELS 3 Zrotation Xrotation Yrotation
          JOINT rForeArm
          {
            OFFSET -28.1742 -1.7115 0.48768
            CHANNELS 3 Zrotation Xrotation Yrotation
            JOINT rHand
            {
              OFFSET -22.5879 0.773209 7.07136
              CHANNELS 3 Zrotation Xrotation Yrotation
              JOINT rThumb1
              {
                OFFSET -1.2192 -0.487915 3.41376
                CHANNELS 3 Zrotation Xrotation Yrotation
                JOINT rThumb2
                {
                  OFFSET -3.37035 -0.52449 3.41376
                  CHANNELS 3 Zrotation Xrotation Yrotation
                  End Site
                  {
                    OFFSET -1.78271 -1.18214 1.43049
                  }
                }
              }
              JOINT rIndex1
              {
                OFFSET -7.75947 0.938293 5.60832
                CHANNELS 3 Zrotation Xrotation Yrotation
                JOINT rIndex2
                {
                  OFFSET -2.54057 -0.884171 1.56538
                  CHANNELS 3 Zrotation Xrotation Yrotation
                  End Site
                  {
                    OFFSET -1.62519 -0.234802 1.16502
                  }
                }
              }
              JOINT rMid1
              {
                OFFSET -8.24714 1.18213 3.41376
                CHANNELS 3 Zrotation Xrotation Yrotation
                JOINT rMid2
                {
                  OFFSET -3.10165 -0.590103 1.0647
                  CHANNELS 3 Zrotation Xrotation Yrotation
                  End Site
                  {
                    OFFSET -2.48547 -0.328903 0.83742
                  }
                }
              }
              JOINT rRing1
              {
                OFFSET -8.82822 0.546677 1.51678
                CHANNELS 3 Zrotation Xrotation Yrotation
                JOINT rRing2
                {
                  OFFSET -2.60934 -0.819778 -0.0198488
                  CHANNELS 3 Zrotation Xrotation Yrotation
                  End Site
                  {
                    OFFSET -2.33842 -0.294052 0.168128
                  }
                }
              }
              JOINT rPinky1
              {
                OFFSET -8.27202 -0.0477905 -0.4584
                CHANNELS 3 Zrotation Xrotation Yrotation
                JOINT rPinky2
                {
                  OFFSET -1.82734 -0.647385 -0.700984
                  CHANNELS 3 Zrotation Xrotation Yrotation
                  End Site
                  {
                    OFFSET -1.69225 -0.51767 -0.607171
                  }
                }
              }
            }
          }
        }
      }
      JOINT lCollar
      {
        OFFSET 2.68224 19.2634 -4.8768
        CHANNELS 3 Zrotation Xrotation Yrotation
        JOINT lShldr
        {
          OFFSET 8.77824 -1.95073 1.46304
          CHANNELS 3 Zrotation Xrotation Yrotation
          JOINT lForeArm
          {
            OFFSET 28.1742 -1.7115 0.48768
            CHANNELS 3 Zrotation Xrotation Yrotation
            JOINT lHand
            {
              OFFSET 22.5879 0.773209 7.07136
              CHANNELS 3 Zrotation Xrotation Yrotation
              JOINT lThumb1
              {
                OFFSET 1.2192 -0.487915 3.41376
                CHANNELS 3 Zrotation Xrotation Yrotation
                JOINT lThumb2
                {
                  OFFSET 3.37035 -0.52449 3.41376
                  CHANNELS 3 Zrotation Xrotation Yrotation
                  End Site
                  {
                    OFFSET 1.78271 -1.18214 1.43049
                  }
                }
              }
              JOINT lIndex1
              {
                OFFSET 7.75947 0.938293 5.60832
                CHANNELS 3 Zrotation Xrotation Yrotation
                JOINT lIndex2
                {
                  OFFSET 2.54057 -0.884171 1.56538
                  CHANNELS 3 Zrotation Xrotation Yrotation
                  End Site
                  {
                    OFFSET 1.62519 -0.234802 1.16502
                  }
                }
              }
              JOINT lMid1
              {
                OFFSET 8.24714 1.18213 3.41376
                CHANNELS 3 Zrotation Xrotation Yrotation
                JOINT lMid2
                {
                  OFFSET 3.10165 -0.590103 1.0647
                  CHANNELS 3 Zrotation Xrotation Yrotation
                  End Site
                  {
                    OFFSET 2.48547 -0.328903 0.83742
                  }
                }
              }
              JOINT lRing1
              {
                OFFSET 8.82822 0.546677 1.51678
                CHANNELS 3 Zrotation Xrotation Yrotation
                JOINT lRing2
                {
                  OFFSET 2.60934 -0.819778 -0.0198488
                  CHANNELS 3 Zrotation Xrotation Yrotation
                  End Site
                  {
                    OFFSET 2.33842 -0.294052 0.168128
                  }
                }
              }
              JOINT lPinky1
              {
                OFFSET 8.27202 -0.0477905 -0.4584
                CHANNELS 3 Zrotation Xrotation Yrotation
                JOINT lPinky2
                {
                  OFFSET 1.82734 -0.647385 -0.700984
                  CHANNELS 3 Zrotation Xrotation Yrotation
                  End Site
                  {
                    OFFSET 1.69225 -0.51767 -0.607171
                  }
                }
              }
            }
          }
        }
      }
    }
  }
  JOINT rButtock
  {
    OFFSET -8.77824 4.35084 1.2192
    CHANNELS 3 Zrotation Xrotation Yrotation
    JOINT rThigh
    {
      OFFSET 0 -1.70687 -2.19456
      CHANNELS 3 Zrotation Xrotation Yrotation
      JOINT rShin
      {
        OFFSET 0 -36.8199 0.73152
        CHANNELS 3 Zrotation Xrotation Yrotation
        JOINT rFoot
        {
          OFFSET 0.73152 -45.1104 -5.12064
          CHANNELS 3 Zrotation Xrotation Yrotation
          End Site
          {
            OFFSET -1.1221 -3.69964 12.103
          }
        }
      }
    }
  }
  JOINT lButtock
  {
    OFFSET 8.77824 4.35084 1.2192
    CHANNELS 3 Zrotation Xrotation Yrotation
    JOINT lThigh
    {
      OFFSET 0 -1.70687 -2.19456
      CHANNELS 3 Zrotation Xrotation Yrotation
      JOINT lShin
      {
        OFFSET 0 -36.8199 0.73152
        CHANNELS 3 Zrotation Xrotation Yrotation
        JOINT lFoot
        {
          OFFSET -0.73152 -45.1104 -5.12064
          CHANNELS 3 Zrotation Xrotation Yrotation
          End Site
          {
            OFFSET 1.1221 -3.69964 12.103
          }
        }
      }
    }
  }
}
MOTION
Frames:	6
Frame Time:	0.00833333
-7.72916 85.1388 131.374 -0.311928 -0.00136762 0.00530378 0.41059 -0.00336425 0.0117806 0.113459 -0.00539521 0.0196593 7.24595e-015 0 -6.21202e-017 2.17545e-014 3.18055e-015 -1.25793e-016 -0 0 0 -0 0 0 3.62659e-015 -4.27076e-018 9.93923e-017 7.87128e-014 2.48481e-017 9.93923e-016 1.31491e-012 -3.91805e-013 -2.54444e-014 1.4992e-011 3.87257e-013 -7.31528e-014 3.53715e-011 -8.80786e-015 -1.87653e-013 6.10738e-011 -1.59028e-014 -3.30778e-013 3.53773e-011 -7.55382e-015 -2.00375e-013 7.73091 5.47488 0.417314 3.53722e-011 -9.1441e-015 -1.81292e-013 2.90554 0.965183 0.102902 3.53798e-011 -8.44835e-015 -1.90833e-013 10.2786 0.731801 0.0259123 3.53638e-011 -7.95139e-015 -1.78111e-013 2.22167 -0.733487 -0.20892 3.62929e-015 -4.27076e-018 -9.93923e-017 7.43898e-014 -3.78933e-016 -1.19271e-015 1.30447e-012 3.89817e-013 -3.18055e-015 1.49956e-011 -4.03856e-013 -7.63333e-014 3.53623e-011 -2.7647e-014 -1.90833e-013 6.10758e-011 -4.13472e-014 -3.34753e-013 3.5357e-011 -2.70347e-014 -1.84472e-013 -7.73091 5.47488 -0.417314 3.53625e-011 -2.79292e-014 -1.94014e-013 -2.90554 0.965183 -0.102902 3.53562e-011 -2.76311e-014 -1.91628e-013 -10.2786 0.731801 -0.0259123 3.53757e-011 -2.46493e-014 -2.00375e-013 -2.22167 -0.733487 0.20892 -2.03217e-016 0 -3.88251e-019 0.770601 -4.17183 -0.0656814 -0.00265485 2.00555 -0.0182701 -0.461826 2.16687 0.0961004 2.03217e-016 0 3.88251e-019 -0.143238 -2.55995 0.0260685 0.00716323 -0.914091 0.0621721 0.453777 3.47457 -0.121226 
-7.12768 83.4525 125.593 -5.6942 4.7008 49.0672 -0.939468 -8.24072 -0.791368 1.01873 3.72663 -0.34835 -0.039562 3.94931 -1.37411 1.52973 -2.4696 -2.06833 -0 0 0 -0 0 0 2.34024e-014 1.06074e-013 2.01491e-014 23.1624 3.13817 -2.02952 -5.2201 -2.61219 7.87546 0.00388577 -1.38309 -0.194176 -5.26849e-010 8.85715e-010 -7.1176e-010 -9.10047e-010 1.53005e-009 -1.23281e-009 -5.26841e-010 8.85715e-010 -7.11769e-010 7.73091 5.47488 0.417314 -5.26849e-010 8.85715e-010 -7.11754e-010 2.90554 0.965183 0.102902 -5.26844e-010 8.85716e-010 -7.11761e-010 10.2786 0.731801 0.0259123 -5.26858e-010 8.85717e-010 -7.11749e-010 2.22167 -0.733487 -0.20892 2.34347e-014 1.06073e-013 1.99674e-014 -21.2909 6.10266 -0.650653 3.2815 -1.3432 -5.27466 -0.00181266 0.957421 -0.134492 -7.07735e-010 2.30104e-010 1.1331e-009 -1.21847e-009 4.00055e-010 1.96202e-009 -7.07738e-010 2.30105e-010 1.13311e-009 -7.73091 5.47488 -0.417314 -7.07738e-010 2.30103e-010 1.1331e-009 -2.90554 0.965183 -0.102902 -7.0774e-010 2.30105e-010 1.1331e-009 -10.2786 0.731801 -0.0259123 -7.07723e-010 2.30109e-010 1.13309e-009 -2.22167 -0.733487 0.20892 -2.03217e-016 0 -3.88251e-019 1.15567 -11.1516 1.91535 -0.000100239 3.972 0.0274586 -0.483382 -2.26492 -0.211146 2.03217e-016 0 3.88251e-019 -0.400989 -9.29976 -1.85467 0.00580111 1.19071 0.0270034 0.4599 1.54448 -0.00217285 
-6.99379 83.4534 125.567 -14.7642 -2.64816 100.141 -2.62722 -16.9457 -1.69464 2.02789 7.67078 -0.741869 0.128881 8.12022 -2.84773 2.95177 -5.07485 -4.26597 -0 0 0 -0 0 0 4.59008e-014 2.28006e-013 4.28226e-014 47.8925 6.44007 -4.19649 -9.96492 -5.20882 16.2523 -0.00221755 -2.84847 -0.40029 -1.15697e-009 1.89476e-009 -1.51944e-009 -1.99846e-009 3.27316e-009 -2.63169e-009 -1.15696e-009 1.89476e-009 -1.51944e-009 7.73091 5.47488 0.417314 -1.15697e-009 1.89476e-009 -1.51943e-009 2.90554 0.965183 0.102902 -1.15697e-009 1.89476e-009 -1.51944e-009 10.2786 0.731801 0.0259123 -1.15698e-009 1.89476e-009 -1.51942e-009 2.22167 -0.733487 -0.20892 4.59656e-014 2.28003e-013 4.26611e-014 -43.6437 12.5444 -1.35997 6.4832 -2.72542 -10.8606 0.00121442 1.98767 -0.279343 -1.54085e-009 4.97045e-010 2.4287e-009 -2.65292e-009 8.64072e-010 4.20534e-009 -1.54085e-009 4.97048e-010 2.42872e-009 -7.73091 5.47488 -0.417314 -1.54085e-009 4.97043e-010 2.4287e-009 -2.90554 0.965183 -0.102902 -1.54085e-009 4.97048e-010 2.4287e-009 -10.2786 0.731801 -0.0259123 -1.54084e-009 4.97052e-010 2.4287e-009 -2.22167 -0.733487 0.20892 -2.03217e-016 0 -3.88251e-019 2.11685 -18.4991 4.15081 -0.00078083 6.05182 0.0760724 -0.557724 -6.94927 -0.537084 2.03217e-016 0 3.88251e-019 -1.17028 -16.3987 -3.95504 0.00716348 3.41631 -0.0102011 0.475376 -0.493917 0.12677 
-7.09792 83.4489 125.593 -12.4995 -17.7713 144.606 -4.39125 -24.6951 -2.6122 2.97543 11.1889 -1.10313 0.459532 11.8204 -4.20179 4.05167 -7.37005 -6.25106 -0 0 0 -0 0 0 6.2954e-014 3.18231e-013 6.02484e-014 70.1603 9.36695 -6.16191 -13.5595 -7.24562 23.8033 -0.016529 -4.14908 -0.58389 -1.65129e-009 2.65716e-009 -2.13491e-009 -2.85229e-009 4.59019e-009 -3.69776e-009 -1.65128e-009 2.65716e-009 -2.13491e-009 7.73091 5.47488 0.417314 -1.65129e-009 2.65716e-009 -2.1349e-009 2.90554 0.965183 0.102902 -1.65129e-009 2.65716e-009 -2.1349e-009 10.2786 0.731801 0.0259123 -1.6513e-009 2.65717e-009 -2.13489e-009 2.22167 -0.733487 -0.20892 6.30454e-014 3.18227e-013 6.01009e-014 -63.4383 18.2983 -2.04431 9.11161 -3.89321 -15.8572 0.00806057 2.8722 -0.403926 -2.19393e-009 6.90366e-010 3.39968e-009 -3.77758e-009 1.20025e-009 5.88674e-009 -2.19393e-009 6.9037e-010 3.3997e-009 -7.73091 5.47488 -0.417314 -2.19394e-009 6.90364e-010 3.39968e-009 -2.90554 0.965183 -0.102902 -2.19393e-009 6.9037e-010 3.39968e-009 -10.2786 0.731801 -0.0259123 -2.19392e-009 6.90375e-010 3.39967e-009 -2.22167 -0.733487 0.20892 -2.03217e-016 0 -3.88251e-019 3.50377 -24.9933 6.36689 -0.00448691 7.90489 0.119835 -0.671009 -11.1274 -0.840814 2.03217e-016 0 3.88251e-019 -2.33913 -22.6812 -6.00916 0.0108406 5.40031 -0.0435288 0.496188 -2.31571 0.235682 
-6.97785 83.4521 125.565 -0.922148 -26.1511 178.456 -5.80023 -30.0745 -3.36426 3.66535 13.6435 -1.36593 0.783746 14.3698 -5.18112 4.72772 -8.92709 -7.66054 -0 0 0 -0 0 0 6.63944e-014 3.2919e-013 6.45553e-014 85.7951 11.4016 -7.55377 -15.7377 -8.44578 29.1208 -0.0312304 -5.03796 -0.709888 -1.80609e-009 2.80298e-009 -2.26985e-009 -3.11964e-009 4.842e-009 -3.93176e-009 -1.80608e-009 2.80297e-009 -2.26985e-009 7.73091 5.47488 0.417314 -1.80609e-009 2.80298e-009 -2.26985e-009 2.90554 0.965183 0.102902 -1.80609e-009 2.80298e-009 -2.26985e-009 10.2786 0.731801 0.0259123 -1.8061e-009 2.80298e-009 -2.26984e-009 2.22167 -0.733487 -0.20892 6.64975e-014 3.29185e-013 6.44062e-014 -77.1456 22.3415 -2.58027 10.8203 -4.65492 -19.3489 0.0141363 3.39252 -0.477351 -2.39694e-009 6.99636e-010 3.5591e-009 -4.12775e-009 1.21683e-009 6.16335e-009 -2.39694e-009 6.99641e-010 3.55912e-009 -7.73091 5.47488 -0.417314 -2.39695e-009 6.99634e-010 3.55909e-009 -2.90554 0.965183 -0.102902 -2.39695e-009 6.99642e-010 3.5591e-009 -10.2786 0.731801 -0.0259123 -2.39694e-009 6.99647e-010 3.55909e-009 -2.22167 -0.733487 0.20892 -2.03217e-016 0 -3.88251e-019 4.79742 -29.4636 8.09282 -0.00902327 9.1911 0.150657 -0.780843 -14.0411 -1.07322 2.03217e-016 0 3.88251e-019 -3.46911 -27.0143 -7.58732 0.0148168 6.78033 -0.0668863 0.512354 -3.59605 0.29426 
-7.0732 83.4527 125.571 5.6618 -27.4091 -167.412 -6.41925 -32.1479 -3.72323 3.94934 14.614 -1.47877 0.910119 15.3336 -5.58873 4.97585 -9.50048 -8.25034 -0 0 0 -0 0 0 4.66505e-014 1.96377e-013 4.62687e-014 91.922 12.221 -8.08902 -16.5251 -8.85895 31.2191 -0.0374785 -5.34577 -0.753652 -1.40135e-009 1.85752e-009 -1.54231e-009 -2.42054e-009 3.20861e-009 -2.67242e-009 -1.40134e-009 1.85751e-009 -1.54231e-009 7.73091 5.47488 0.417314 -1.40135e-009 1.85752e-009 -1.5423e-009 2.90554 0.965183 0.102902 -1.40135e-009 1.85752e-009 -1.5423e-009 10.2786 0.731801 0.0259123 -1.40136e-009 1.85752e-009 -1.54229e-009 2.22167 -0.733487 -0.20892 4.6748e-014 1.96373e-013 4.60893e-014 -82.4862 24.0046 -2.85141 11.4564 -4.93516 -20.7061 0.0144222 3.35948 -0.472708 -1.83425e-009 3.47935e-010 2.23945e-009 -3.16062e-009 6.0687e-010 3.88002e-009 -1.83425e-009 3.4794e-010 2.23947e-009 -7.73091 5.47488 -0.417314 -1.83426e-009 3.47934e-010 2.23945e-009 -2.90554 0.965183 -0.102902 -1.83426e-009 3.47942e-010 2.23945e-009 -10.2786 0.731801 -0.0259123 -1.83425e-009 3.47946e-010 2.23944e-009 -2.22167 -0.733487 0.20892 -2.03217e-016 0 -3.88251e-019 5.3488 -31.1742 8.81185 -0.0118595 9.67878 0.162861 -0.843053 -15.1873 -1.20665 2.03217e-016 0 3.88251e-019 -4.01895 -28.6818 -8.22779 0.016769 7.31225 -0.075997 0.51264 -4.12322 0.270862 
